<?xml version="1.0" encoding="UTF-8"?>
<svg id="Layer_1" data-name="Layer 1" xmlns="http://www.w3.org/2000/svg" viewBox="0 0 450 198.85">
  <defs>
    <style>
      .cls-1 {
        fill: #eaa8cb;
      }

      .cls-2 {
        fill: #fbd4db;
      }

      .cls-3 {
        fill: #fce0e4;
      }

      .cls-4 {
        fill: #85688c;
      }
    </style>
  </defs>
  <path class="cls-1" d="M149.19,141.93c0,17.16-12.76,31.91-30.37,31.91-11.88,0-23.55-4.4-29.71-15.18-4.62,11.44-14.52,15.18-25.97,15.18-5.72,0-12.32-1.76-20.02-7.04v-23.77c3.08,3.52,8.14,5.94,12.76,5.94,5.28,0,8.36-3.08,8.36-8.36V58.31h27.51v42.47c1.98,0,3.96,0,5.94-.22,18.04-1.32,35.43-7.92,35.43-29.27,0-22.89-22.67-32.79-45.11-32.79-23.77,0-48.63,13.86-48.63,40.27,0,8.14,1.76,14.74,7.48,20.68l-20.02,17.16c-11-12.1-13.64-21.78-13.64-37.85C13.2,36.97,47.97,13.2,87.14,13.2s73.72,20.02,73.72,56.11c0,22.01-16.06,38.95-38.29,42.25,12.76,1.54,26.63,16.94,26.63,30.37Zm-26.63-4.18c0-12.76-10.78-16.94-21.79-16.94-3.08,0-5.94,.44-9.02,.88v18.48c0,6.82,8.58,11.22,15.84,11.22,7.92,0,14.96-5.28,14.96-13.64Z"/>
  <path class="cls-1" d="M312.25,173.84c-14.52,0-23.99-13.2-23.99-26.85V15.62h25.09V143.69c0,5.06,3.96,7.92,8.8,7.92,3.3,0,6.6-1.32,9.02-3.52v20.24c-5.06,3.96-12.32,5.5-18.92,5.5Z"/>
  <path class="cls-1" d="M356.48,119.71c8.36,0,16.94-2.2,23.55-7.92v24.21c-6.82,3.3-16.06,4.84-23.55,4.84-26.41,0-48.41-16.72-48.41-44.45,0-22.89,19.14-42.91,42.25-42.91,16.94,0,29.05,6.38,38.73,20.24l-44.01,44.01c3.52,1.32,7.26,1.98,11.44,1.98Zm-26.19-23.33c0,3.3,.66,6.38,1.76,9.02l26.85-27.95c-2.2-2.2-6.82-2.86-9.68-2.86-12.32,0-18.92,10.34-18.92,21.78Z"/>
  <path class="cls-1" d="M450,64.18v99.46c0,16.28-11.88,35.21-29.93,35.21l-9.46-20.9c7.48,0,14.3-6.82,14.3-14.3v-23.77c-5.06,6.82-13.2,10.12-21.56,10.12-17.16,0-29.27-14.3-29.27-30.81v-55.01h25.09v52.37c0,6.6,3.52,12.32,10.78,12.32,8.14,0,12.98-6.16,14.96-15.4v-49.29h25.09Z"/>
  <path class="cls-1" d="M243.81,53.69c0-9.46,7.7-17.38,17.38-17.38s17.16,7.92,17.16,17.38-7.7,17.38-17.16,17.38-17.38-7.92-17.38-17.38Zm28.83,120.15c-14.52,0-23.99-13.2-23.99-26.85v-58.75h24.87v55.45c0,5.06,4.18,7.92,8.8,7.92,3.52,0,6.82-1.32,9.24-3.52v20.24c-5.28,3.96-12.54,5.5-18.92,5.5Z"/>
  <path class="cls-1" d="M248.21,140.94v20.24c-5.28,3.96-12.54,5.5-19.14,5.5-9.02,0-17.6-5.5-21.57-14.96-6.38,10.12-16.5,14.96-28.39,14.96-24.65,0-40.49-20.03-40.49-43.79s15.84-43.57,40.49-43.57c10.34,0,19.36,3.52,25.97,11.44v-9.68h25.09v55.45c0,5.06,3.96,7.92,8.8,7.92,3.3,0,6.6-1.32,9.24-3.52Zm-43.13-9.46v-17.16c-3.08-8.36-11-14.3-20.02-14.3-12.32,0-21.57,10.78-21.57,22.89s9.24,22.89,21.57,22.89c8.8,0,16.94-5.94,20.02-14.3Z"/>
  <g>
    <path class="cls-2" d="M418.31,57.58v49.29c-1.98,9.24-6.82,15.4-14.96,15.4-7.26,0-10.78-5.72-10.78-12.32V57.58h-18.48c-8.17-7.27-17.97-10.71-30.37-10.71-15.79,0-29.72,9.35-36.97,22.58V9.02h-25.09V140.39c0,1.07,.07,2.15,.18,3.21-1.85,.91-3.94,1.41-6.12,1.41-4.62,0-8.8-2.86-8.8-7.92v-55.45h-24.87v55.66c-1.69,.71-3.48,1.11-5.28,1.11-4.84,0-8.8-2.86-8.8-7.92v-55.45h-25.09v9.68c-6.6-7.92-15.62-11.44-25.97-11.44-24.65,0-40.49,20.02-40.49,43.57,0,.62,.02,1.23,.04,1.85-5.22-7.2-13.05-12.83-20.5-13.73,22.22-3.3,38.29-20.24,38.29-42.25,0-36.09-34.11-56.11-73.72-56.11S6.6,30.37,6.6,72.18c0,16.06,2.64,25.75,13.64,37.85l20.02-17.16c-5.72-5.94-7.48-12.54-7.48-20.68,0-26.41,24.87-40.27,48.63-40.27,22.45,0,45.11,9.9,45.11,32.79,0,21.35-17.38,27.95-35.43,29.27-1.98,.22-3.96,.22-5.94,.22V51.71h-27.51v82.3c0,5.28-3.08,8.36-8.36,8.36-4.62,0-9.68-2.42-12.76-5.94v23.77c7.7,5.28,14.3,7.04,20.02,7.04,11.44,0,21.35-3.74,25.97-15.18,6.16,10.78,17.82,15.18,29.71,15.18,15.9,0,27.85-12.03,30.01-27,6.71,12.17,18.88,20.4,34.68,20.4,11.88,0,22.01-4.84,28.39-14.96,3.96,9.46,12.54,14.96,21.57,14.96,6.59,0,13.83-1.54,19.11-5.48,4.07,7.05,11.1,12.08,20.06,12.08,6.38,0,13.64-1.54,18.92-5.5v-7.71c3.96,7.64,11.25,13.22,20.68,13.22,6.6,0,13.86-1.54,18.92-5.5v-20.24c-2.42,2.2-5.72,3.52-9.02,3.52-4.84,0-8.8-2.86-8.8-7.92v-25.84c8.06,14.65,24.5,22.98,43.13,22.98,7.11,0,15.8-1.41,22.5-4.39,5.08,8.08,13.75,13.56,24.37,13.56,8.36,0,16.5-3.3,21.56-10.12v23.77c0,7.48-6.82,14.3-14.3,14.3l9.46,20.9c18.04,0,29.93-18.92,29.93-35.21V57.58h-25.09ZM101,144.79c-7.26,0-15.84-4.4-15.84-11.22v-18.48c3.08-.44,5.94-.88,9.02-.88,11,0,21.79,4.18,21.79,16.94,0,8.36-7.04,13.64-14.96,13.64Zm101.88-19.36c-3.08,8.36-11.22,14.3-20.02,14.3-12.32,0-21.57-10.78-21.57-22.89s9.24-22.89,21.57-22.89c9.02,0,16.94,5.94,20.02,14.3v17.16Zm120.8-35.65c0-11.44,6.6-21.78,18.92-21.78,2.86,0,7.48,.66,9.68,2.86l-26.85,27.95c-1.1-2.64-1.76-5.72-1.76-9.02Zm14.74,21.35l29.05-29.05v27.09c-5.43,2.78-11.57,3.94-17.6,3.94-4.18,0-7.92-.66-11.44-1.98Z"/>
    <path class="cls-2" d="M254.59,64.47c9.46,0,17.16-7.92,17.16-17.38s-7.7-17.38-17.16-17.38-17.38,7.92-17.38,17.38,7.7,17.38,17.38,17.38Z"/>
  </g>
  <g>
    <path class="cls-3" d="M405.11,48.63v49.29c-1.98,9.24-6.82,15.4-14.96,15.4-7.26,0-10.78-5.72-10.78-12.32V48.63h-14.75c-7.57-5.66-16.51-8.36-27.5-8.36-15.79,0-29.72,9.35-36.97,22.58V2.42h-25.09V133.79c0,1.07,.07,2.15,.18,3.21-1.85,.91-3.94,1.41-6.12,1.41-4.62,0-8.8-2.86-8.8-7.92v-55.45h-24.87v55.66c-1.69,.71-3.48,1.11-5.28,1.11-4.84,0-8.8-2.86-8.8-7.92v-55.45h-25.09v9.68c-6.6-7.92-15.62-11.44-25.97-11.44-24.65,0-40.49,20.02-40.49,43.57,0,.62,.02,1.23,.04,1.85-5.22-7.2-13.05-12.83-20.5-13.73,22.23-3.3,38.29-20.24,38.29-42.25C147.65,20.02,113.55,0,73.94,0S0,23.77,0,65.58c0,16.06,2.64,25.75,13.64,37.85l20.02-17.16c-5.72-5.94-7.48-12.54-7.48-20.68,0-26.41,24.87-40.27,48.63-40.27,22.45,0,45.11,9.9,45.11,32.79,0,21.35-17.38,27.95-35.43,29.27-1.98,.22-3.96,.22-5.94,.22V45.11h-27.51V127.41c0,5.28-3.08,8.36-8.36,8.36-4.62,0-9.68-2.42-12.76-5.94v23.77c7.7,5.28,14.3,7.04,20.02,7.04,11.44,0,21.34-3.74,25.97-15.18,6.16,10.78,17.82,15.18,29.71,15.18,15.9,0,27.85-12.03,30.01-27,6.71,12.17,18.88,20.4,34.68,20.4,11.88,0,22.01-4.84,28.39-14.96,3.96,9.46,12.54,14.96,21.56,14.96,6.59,0,13.83-1.54,19.11-5.48,4.07,7.05,11.1,12.08,20.06,12.08,6.38,0,13.64-1.54,18.92-5.5v-7.71c3.96,7.64,11.25,13.22,20.68,13.22,6.6,0,13.86-1.54,18.92-5.5v-20.24c-2.42,2.2-5.72,3.52-9.02,3.52-4.84,0-8.8-2.86-8.8-7.92v-25.84c8.06,14.65,24.5,22.98,43.13,22.98,5.84,0,12.73-.95,18.73-2.93,5.19,5.95,12.69,9.75,21.54,9.75,8.36,0,16.5-3.3,21.57-10.12v23.77c0,7.48-6.82,14.3-14.3,14.3l9.46,20.9c18.04,0,29.93-18.92,29.93-35.21V48.63h-25.09ZM94.4,138.19c-7.26,0-15.84-4.4-15.84-11.22v-18.48c3.08-.44,5.94-.88,9.02-.88,11,0,21.78,4.18,21.78,16.94,0,8.36-7.04,13.64-14.96,13.64Zm101.88-19.36c-3.08,8.36-11.22,14.3-20.02,14.3-12.32,0-21.56-10.78-21.56-22.89s9.24-22.89,21.56-22.89c9.02,0,16.94,5.94,20.02,14.3v17.16Zm120.81-35.65c0-11.44,6.6-21.78,18.92-21.78,2.86,0,7.48,.66,9.68,2.86l-26.85,27.95c-1.1-2.64-1.76-5.72-1.76-9.02Zm26.19,23.33c-4.18,0-7.92-.66-11.44-1.98l22.44-22.44v21.56c0,.49,.01,.97,.03,1.45-3.59,.98-7.34,1.41-11.04,1.41Z"/>
    <path class="cls-3" d="M247.99,57.87c9.46,0,17.16-7.92,17.16-17.38s-7.7-17.38-17.16-17.38-17.38,7.92-17.38,17.38,7.7,17.38,17.38,17.38Z"/>
  </g>
  <g>
    <path class="cls-4" d="M141.82,57.31c0-32.51-30.68-52.42-66.44-52.42C36.98,4.89,8.12,25.61,8.12,66.04c0,10.77,3.66,21.74,10.97,29.66l4.67-4.27c-6.3-6.7-9.35-16.25-9.35-25.4,0-37.18,26.01-55.06,60.95-55.06,31.49,0,60.14,16.86,60.14,46.32,0,31.29-33.73,37.38-58.31,37.38h-8.33V33.53h-6.1v98.34c0,6.7-3.45,15.24-11.58,15.24-3.86,0-9.14-1.83-11.58-5.08v7.92c3.45,2.23,7.52,3.25,11.58,3.25,9.96,0,16.05-8.33,17.47-17.27,5.49,12.8,17.47,17.27,30.68,17.27,15.24,0,30.07-8.94,30.07-25.6,0-18.49-15.64-28.04-32.51-29.46,24.99-1.83,44.9-17.27,44.9-40.84Zm-18.69,70.3c0,13-12.19,19.51-23.77,19.51-18.29,0-30.48-9.55-30.48-28.65v-17.47h8.33c18.49,0,45.92,2.23,45.92,26.62Z"/>
    <path class="cls-4" d="M300.95,146.91c-7.52,0-11.17-6.1-11.17-13V7.12h-6.3v126.78c0,10.36,6.3,19.3,17.47,19.3,4.47,0,8.74-.81,12.6-3.25v-7.92c-3.66,3.86-7.52,4.88-12.6,4.88Z"/>
    <path class="cls-4" d="M220.54,138.97c-7.72,0-11.17-6.1-11.17-13v-48.97h-6.3v15.03c-5.89-10.36-16.46-16.86-28.44-16.86-19.1,0-34.54,15.85-34.54,34.95s15.44,34.95,34.54,34.95c12.19,0,22.96-6.71,28.65-17.47,.61,9.96,7.11,17.68,17.27,17.68,4.47,0,8.74-.81,12.6-3.25v-7.92c-3.66,3.86-7.52,4.88-12.6,4.88Zm-17.47-25.4c0,12.6-12.19,25.4-28.44,25.4s-28.24-13.21-28.24-28.85,12.6-28.85,28.24-28.85,28.44,12.8,28.44,25.4v6.91Z"/>
    <path class="cls-4" d="M413.83,59.41v37.38c0,11.58-9.55,24.58-21.74,24.58-14.02,0-21.13-8.94-21.13-22.55V59.41h-6.3v1.66c-7.29-7.08-15.4-12.16-25.96-12.16-19.1,0-34.54,15.85-34.54,34.95s15.44,34.95,36.78,34.95c5.49,0,13.41-1.02,20.32-4.67v-7.11c-6.5,4.47-14.83,5.69-20.72,5.69-7.72,0-14.63-2.44-19.71-6.7l43.84-43.24v36.07c0,17.07,9.96,28.65,27.43,28.65,9.96,0,17.68-6.3,21.74-15.04v27.63c0,11.38-7.72,24.18-19.3,26.82l1.42,5.89c14.43-3.25,24.18-18.29,24.18-32.71V59.41h-6.3Zm-97.48,41.91c-3.66-4.67-5.89-10.77-5.89-17.47,0-15.64,12.6-28.85,28.24-28.85,6.5,0,12.8,3.25,17.68,7.11l-40.03,39.21Z"/>
    <path class="cls-4" d="M261.22,148.73c-7.72,0-11.38-6.1-11.38-13v-48.76h-6.1v48.76c0,10.36,6.3,19.3,17.47,19.3,4.47,0,8.74-.81,12.6-3.25v-7.92c-3.66,3.86-7.52,4.88-12.6,4.88Z"/>
    <circle class="cls-4" cx="246.8" cy="39.63" r="6.5"/>
  </g>
</svg>